<mxfile host="Electron" modified="2024-05-06T23:47:07.588Z" agent="Mozilla/5.0 (X11; Linux x86_64) AppleWebKit/537.36 (KHTML, like Gecko) draw.io/24.2.5 Chrome/120.0.6099.109 Electron/28.1.0 Safari/537.36" etag="9Ywoz1N94OmTsYiwYBOl" version="24.2.5" type="device">
  <diagram name="Page-1" id="ocxVWDM4G3DXo7YLKVx1">
    <mxGraphModel dx="1434" dy="838" grid="1" gridSize="10" guides="1" tooltips="1" connect="1" arrows="1" fold="1" page="1" pageScale="1" pageWidth="800" pageHeight="650" math="0" shadow="0">
      <root>
        <mxCell id="0" />
        <mxCell id="1" parent="0" />
        <mxCell id="8zDMdAevyb3ULlisjvw2-33" value="Guest" style="shape=table;startSize=75;container=1;collapsible=0;childLayout=tableLayout;fixedRows=1;rowLines=1;fontStyle=1;align=center;resizeLast=1;fontFamily=Courier New;shadow=1;" vertex="1" parent="1">
          <mxGeometry x="53" y="195" width="100" height="75" as="geometry" />
        </mxCell>
        <mxCell id="8zDMdAevyb3ULlisjvw2-34" value="Reservation" style="shape=table;startSize=75;container=1;collapsible=0;childLayout=tableLayout;fixedRows=1;rowLines=1;fontStyle=1;align=center;resizeLast=1;fontFamily=Courier New;shadow=1;" vertex="1" parent="1">
          <mxGeometry x="53" y="370" width="100" height="75" as="geometry" />
        </mxCell>
        <mxCell id="8zDMdAevyb3ULlisjvw2-35" value="Room" style="shape=table;startSize=75;container=1;collapsible=0;childLayout=tableLayout;fixedRows=1;rowLines=1;fontStyle=1;align=center;resizeLast=1;fontFamily=Courier New;shadow=1;" vertex="1" parent="1">
          <mxGeometry x="53" y="545" width="100" height="75" as="geometry" />
        </mxCell>
        <mxCell id="8zDMdAevyb3ULlisjvw2-36" value="Staff" style="shape=table;startSize=75;container=1;collapsible=0;childLayout=tableLayout;fixedRows=1;rowLines=1;fontStyle=1;align=center;resizeLast=1;fontFamily=Courier New;shadow=1;" vertex="1" parent="1">
          <mxGeometry x="403" y="20" width="100" height="75" as="geometry" />
        </mxCell>
        <mxCell id="8zDMdAevyb3ULlisjvw2-37" value="Role" style="shape=table;startSize=75;container=1;collapsible=0;childLayout=tableLayout;fixedRows=1;rowLines=1;fontStyle=1;align=center;resizeLast=1;fontFamily=Courier New;shadow=1;" vertex="1" parent="1">
          <mxGeometry x="253" y="195" width="100" height="75" as="geometry" />
        </mxCell>
        <mxCell id="8zDMdAevyb3ULlisjvw2-38" value="Task" style="shape=table;startSize=75;container=1;collapsible=0;childLayout=tableLayout;fixedRows=1;rowLines=1;fontStyle=1;align=center;resizeLast=1;fontFamily=Courier New;shadow=1;" vertex="1" parent="1">
          <mxGeometry x="453" y="195" width="100" height="75" as="geometry" />
        </mxCell>
        <mxCell id="8zDMdAevyb3ULlisjvw2-39" value="Inventory" style="shape=table;startSize=75;container=1;collapsible=0;childLayout=tableLayout;fixedRows=1;rowLines=1;fontStyle=1;align=center;resizeLast=1;fontFamily=Courier New;shadow=1;" vertex="1" parent="1">
          <mxGeometry x="653" y="20" width="100" height="75" as="geometry" />
        </mxCell>
        <mxCell id="8zDMdAevyb3ULlisjvw2-40" value="Supplier" style="shape=table;startSize=75;container=1;collapsible=0;childLayout=tableLayout;fixedRows=1;rowLines=1;fontStyle=1;align=center;resizeLast=1;fontFamily=Courier New;shadow=1;" vertex="1" parent="1">
          <mxGeometry x="653" y="195" width="100" height="75" as="geometry" />
        </mxCell>
        <mxCell id="8zDMdAevyb3ULlisjvw2-41" value="Feedback" style="shape=table;startSize=75;container=1;collapsible=0;childLayout=tableLayout;fixedRows=1;rowLines=1;fontStyle=1;align=center;resizeLast=1;fontFamily=Courier New;shadow=1;" vertex="1" parent="1">
          <mxGeometry x="53" y="20" width="100" height="75" as="geometry" />
        </mxCell>
        <mxCell id="8zDMdAevyb3ULlisjvw2-42" value="Payment" style="shape=table;startSize=75;container=1;collapsible=0;childLayout=tableLayout;fixedRows=1;rowLines=1;fontStyle=1;align=center;resizeLast=1;fontFamily=Courier New;shadow=1;" vertex="1" parent="1">
          <mxGeometry x="253" y="545" width="100" height="75" as="geometry" />
        </mxCell>
        <mxCell id="8zDMdAevyb3ULlisjvw2-43" value="makes" style="curved=1;startArrow=ERmandOne;startSize=10;;endArrow=ERmany;endSize=10;;exitX=0.5;exitY=1;entryX=0.5;entryY=0;rounded=0;fontFamily=Courier New;fontStyle=1;shadow=1;" edge="1" parent="1" source="8zDMdAevyb3ULlisjvw2-33" target="8zDMdAevyb3ULlisjvw2-34">
          <mxGeometry relative="1" as="geometry">
            <Array as="points" />
          </mxGeometry>
        </mxCell>
        <mxCell id="8zDMdAevyb3ULlisjvw2-44" value="allocated to" style="curved=1;startArrow=ERmandOne;startSize=10;;endArrow=ERmany;endSize=10;;exitX=0.7142857142857143;exitY=0;entryX=0.7142857142857143;entryY=1;rounded=0;fontFamily=Courier New;fontStyle=1;shadow=1;" edge="1" parent="1" source="8zDMdAevyb3ULlisjvw2-35" target="8zDMdAevyb3ULlisjvw2-34">
          <mxGeometry relative="1" as="geometry">
            <Array as="points">
              <mxPoint x="153" y="495" />
            </Array>
          </mxGeometry>
        </mxCell>
        <mxCell id="8zDMdAevyb3ULlisjvw2-45" value="assigned" style="curved=1;startArrow=ERmandOne;startSize=10;;endArrow=ERmany;endSize=10;;exitX=0;exitY=0.888888888888889;entryX=0.5;entryY=0;rounded=0;fontFamily=Courier New;fontStyle=1;shadow=1;" edge="1" parent="1" source="8zDMdAevyb3ULlisjvw2-36" target="8zDMdAevyb3ULlisjvw2-37">
          <mxGeometry relative="1" as="geometry">
            <Array as="points">
              <mxPoint x="303" y="145" />
            </Array>
          </mxGeometry>
        </mxCell>
        <mxCell id="8zDMdAevyb3ULlisjvw2-46" value="includes" style="curved=1;startArrow=ERmandOne;startSize=10;;endArrow=ERmandOne;endSize=10;;exitX=0.2857142857142857;exitY=1;entryX=0.2857142857142857;entryY=0;rounded=0;fontFamily=Courier New;fontStyle=1;shadow=1;" edge="1" parent="1" source="8zDMdAevyb3ULlisjvw2-34" target="8zDMdAevyb3ULlisjvw2-35">
          <mxGeometry relative="1" as="geometry">
            <Array as="points">
              <mxPoint x="53" y="495" />
            </Array>
          </mxGeometry>
        </mxCell>
        <mxCell id="8zDMdAevyb3ULlisjvw2-47" value="performs" style="curved=1;startArrow=ERmandOne;startSize=10;;endArrow=ERmany;endSize=10;;exitX=0.7142857142857144;exitY=1;entryX=0.5;entryY=0;rounded=0;fontFamily=Courier New;fontStyle=1;shadow=1;" edge="1" parent="1" source="8zDMdAevyb3ULlisjvw2-36" target="8zDMdAevyb3ULlisjvw2-38">
          <mxGeometry relative="1" as="geometry">
            <Array as="points">
              <mxPoint x="503" y="145" />
            </Array>
          </mxGeometry>
        </mxCell>
        <mxCell id="8zDMdAevyb3ULlisjvw2-48" value="ordered from" style="curved=1;startArrow=ERmandOne;startSize=10;;endArrow=ERmandOne;endSize=10;;exitX=0.5;exitY=1;entryX=0.5;entryY=0;rounded=0;fontFamily=Courier New;fontStyle=1;shadow=1;" edge="1" parent="1" source="8zDMdAevyb3ULlisjvw2-39" target="8zDMdAevyb3ULlisjvw2-40">
          <mxGeometry relative="1" as="geometry">
            <Array as="points" />
          </mxGeometry>
        </mxCell>
        <mxCell id="8zDMdAevyb3ULlisjvw2-49" value="provided by" style="curved=1;startArrow=ERmandOne;startSize=10;;endArrow=ERmany;endSize=10;;exitX=0.5;exitY=1;entryX=0.5;entryY=0;rounded=0;fontFamily=Courier New;fontStyle=1;shadow=1;" edge="1" parent="1" source="8zDMdAevyb3ULlisjvw2-41" target="8zDMdAevyb3ULlisjvw2-33">
          <mxGeometry relative="1" as="geometry">
            <Array as="points" />
          </mxGeometry>
        </mxCell>
        <mxCell id="8zDMdAevyb3ULlisjvw2-50" value="generates" style="curved=1;startArrow=ERmandOne;startSize=10;;endArrow=ERmany;endSize=10;;exitX=1;exitY=0.7916666666666666;entryX=0.5;entryY=0;rounded=0;fontFamily=Courier New;fontStyle=1;shadow=1;" edge="1" parent="1" source="8zDMdAevyb3ULlisjvw2-34" target="8zDMdAevyb3ULlisjvw2-42">
          <mxGeometry relative="1" as="geometry">
            <Array as="points">
              <mxPoint x="303" y="495" />
            </Array>
          </mxGeometry>
        </mxCell>
      </root>
    </mxGraphModel>
  </diagram>
</mxfile>
